<svg xmlns="http://www.w3.org/2000/svg" width="512" height="512" viewBox="0 0 512 512" fill="none">
  <defs>
    <linearGradient id="djBg" x1="0" y1="0" x2="0.35" y2="1">
      <stop offset="0" stop-color="#8b5cf6"/>
      <stop offset="0.55" stop-color="#6d28d9"/>
      <stop offset="1" stop-color="#4c1d95"/>
    </linearGradient>
    <radialGradient id="djGlow" cx="0.5" cy="1" r="0.8">
      <stop offset="0" stop-color="#ddd6fe" stop-opacity="0.9"/>
      <stop offset="0.6" stop-color="#c4b5fd" stop-opacity="0.28"/>
      <stop offset="1" stop-color="#c4b5fd" stop-opacity="0"/>
    </radialGradient>
    <clipPath id="djClip"><rect width="512" height="512" rx="112"/></clipPath>
  </defs>

  <g clip-path="url(#djClip)">
    <rect width="512" height="512" fill="url(#djBg)"/>
    <ellipse cx="256" cy="486" rx="250" ry="152" fill="url(#djGlow)"/>

    <!-- 耳机（lucide headphones，1:1 缩放居中） -->
    <g transform="translate(96 92) scale(13.3333)"
       stroke="#ffffff" stroke-width="1.7" stroke-linecap="round" stroke-linejoin="round">
      <path d="M3 14h3a2 2 0 0 1 2 2v3a2 2 0 0 1-2 2H5a2 2 0 0 1-2-2v-7a9 9 0 0 1 18 0v7a2 2 0 0 1-2 2h-1a2 2 0 0 1-2-2v-3a2 2 0 0 1 2-2h3"/>
    </g>

    <!-- 音符 -->
    <g transform="translate(200 196) scale(5.2)"
       stroke="#e9d5ff" stroke-width="1.9" stroke-linecap="round" stroke-linejoin="round">
      <path d="M9 18V5l12-2v13"/>
      <circle cx="6" cy="18" r="3"/>
      <circle cx="18" cy="16" r="3"/>
    </g>
  </g>
</svg>
