<svg xmlns="http://www.w3.org/2000/svg" viewBox="0 0 512 512" width="512" height="512">
  <defs>
    <linearGradient id="bg" x1="0" y1="0" x2="1" y2="1">
      <stop offset="0" stop-color="#fb7185"/>
      <stop offset="1" stop-color="#e11d48"/>
    </linearGradient>
  </defs>
  <rect width="512" height="512" rx="112" fill="url(#bg)"/>
  <ellipse cx="256" cy="452" rx="150" ry="22" fill="#ffffff" opacity=".16"/>
  <circle cx="256" cy="126" r="44" fill="#ffffff"/>
  <path d="M256 182c-22 0-37 13-42 33l-41 149c-3 11 4 20 15 20h136c11 0 18-9 15-20l-41-149c-5-20-20-33-42-33z" fill="#ffffff"/>
  <g fill="#ffffff">
    <rect x="225" y="374" width="23" height="72" rx="11"/>
    <rect x="264" y="374" width="23" height="72" rx="11"/>
  </g>
  <circle cx="352" cy="356" r="52" fill="#ffffff"/>
  <path d="M338 332l44 24-44 24z" fill="#e11d48"/>
</svg>
