<?xml version="1.0" encoding="UTF-8"?>
<svg xmlns="http://www.w3.org/2000/svg" viewBox="0 0 512 512">
  <defs>
    <linearGradient id="bg" x1="0" y1="0" x2="0" y2="1">
      <stop offset="0" stop-color="#ff7a6b"/>
      <stop offset="1" stop-color="#d93025"/>
    </linearGradient>
    <linearGradient id="leaf" x1="0" y1="0" x2="1" y2="1">
      <stop offset="0" stop-color="#58b868"/>
      <stop offset="1" stop-color="#2f8f42"/>
    </linearGradient>
  </defs>

  <!-- 背景 -->
  <rect width="512" height="512" rx="112" fill="url(#bg)"/>

  <!-- 叶子 -->
  <path d="M256 118c-16-30-52-42-84-30 10 30 42 48 76 42z" fill="url(#leaf)"/>
  <path d="M256 118c16-30 52-42 84-30-10 30-42 48-76 42z" fill="#7ac943"/>
  <rect x="244" y="108" width="24" height="52" rx="12" fill="#2f8f42"/>

  <!-- 高光 -->
  <ellipse cx="180" cy="150" rx="150" ry="80" fill="#ffffff" opacity=".10"/>

  <!-- 钟面 -->
  <circle cx="256" cy="308" r="132" fill="#ffffff"/>
  <circle cx="256" cy="308" r="132" fill="none" stroke="#b3221a" stroke-width="10" opacity=".15"/>

  <!-- 刻度 -->
  <line x1="256" y1="196" x2="256" y2="222" stroke="#d93025" stroke-width="14" stroke-linecap="round"/>
  <line x1="368" y1="308" x2="342" y2="308" stroke="#d93025" stroke-width="14" stroke-linecap="round"/>
  <line x1="256" y1="420" x2="256" y2="394" stroke="#d93025" stroke-width="14" stroke-linecap="round"/>
  <line x1="144" y1="308" x2="170" y2="308" stroke="#d93025" stroke-width="14" stroke-linecap="round"/>

  <!-- 指针 -->
  <line x1="256" y1="308" x2="256" y2="234" stroke="#d93025" stroke-width="22" stroke-linecap="round"/>
  <line x1="256" y1="308" x2="330" y2="308" stroke="#d93025" stroke-width="22" stroke-linecap="round"/>
  <circle cx="256" cy="308" r="22" fill="#d93025"/>
  <circle cx="256" cy="308" r="9" fill="#ffffff"/>
</svg>
