<svg xmlns="http://www.w3.org/2000/svg" viewBox="0 0 512 512">
  <defs>
    <linearGradient id="bg" x1="0" y1="0" x2="1" y2="1">
      <stop offset="0" stop-color="#3b82f6"/>
      <stop offset="1" stop-color="#1d4ed8"/>
    </linearGradient>
    <linearGradient id="body" x1="0" y1="0" x2="0" y2="1">
      <stop offset="0" stop-color="#ffffff"/>
      <stop offset="1" stop-color="#dbeafe"/>
    </linearGradient>
  </defs>
  <rect x="16" y="16" width="480" height="480" rx="104" fill="url(#bg)"/>
  <!-- 提手：大拱形 -->
  <path d="M168 232 v-52 a88 88 0 0 1 176 0 v52 h-56 v-52 a32 32 0 0 0 -64 0 v52 z" fill="url(#body)"/>
  <!-- 箱体：撑满画布宽度 -->
  <rect x="40" y="248" width="432" height="216" rx="40" fill="url(#body)"/>
  <!-- 箱体条纹 -->
  <rect x="40" y="324" width="432" height="30" fill="#93c5fd"/>
  <!-- 中央锁扣 -->
  <rect x="226" y="306" width="60" height="78" rx="16" fill="#1d4ed8"/>
  <circle cx="256" cy="336" r="10" fill="#dbeafe"/>
  <!-- 两侧搭扣 -->
  <rect x="62" y="336" width="34" height="26" rx="8" fill="#60a5fa"/>
  <rect x="416" y="336" width="34" height="26" rx="8" fill="#60a5fa"/>
</svg>
